<?xml version="1.0" standalone="no"?>
<!DOCTYPE svg PUBLIC "-//W3C//DTD SVG 20010904//EN"
 "http://www.w3.org/TR/2001/REC-SVG-20010904/DTD/svg10.dtd">
<svg version="1.0" xmlns="http://www.w3.org/2000/svg"
 width="260.000000pt" height="154.000000pt" viewBox="0 0 260.000000 154.000000"
 preserveAspectRatio="xMidYMid meet">

<g transform="translate(0.000000,154.000000) scale(0.100000,-0.100000)"
fill="#000000" stroke="none">
<path d="M795 1455 c-81 -18 -139 -40 -205 -77 -183 -102 -308 -268 -361 -478
-28 -110 -23 -289 11 -390 81 -241 258 -416 494 -489 56 -17 94 -21 215 -21
165 0 211 9 326 67 128 65 249 177 313 292 30 53 22 53 -13 -1 -80 -121 -208
-217 -351 -264 -77 -25 -104 -29 -204 -29 -100 0 -127 4 -204 29 -204 67 -361
223 -431 427 -25 75 -29 98 -29 209 0 111 3 134 28 205 72 208 223 359 431
431 71 25 94 28 205 28 110 0 135 -4 205 -28 141 -49 263 -139 340 -251 45
-65 56 -71 23 -14 -149 266 -495 420 -793 354z"/>
<path d="M930 1325 c-109 -24 -223 -87 -305 -169 -40 -39 -80 -87 -89 -106
-16 -33 -16 -34 1 -10 31 45 119 127 168 155 220 129 491 104 675 -62 32 -30
74 -76 91 -103 l32 -50 59 0 c35 0 58 4 58 11 0 24 -59 108 -115 164 -71 71
-165 128 -255 156 -86 27 -235 33 -320 14z"/>
<path d="M686 888 c-12 -19 -106 -323 -106 -342 0 -3 29 -6 63 -6 l64 0 18 83
c10 45 21 86 25 90 4 5 32 -30 61 -77 86 -136 122 -138 200 -10 29 47 56 87
60 90 8 5 19 -30 40 -123 l12 -53 64 0 c34 0 63 1 63 3 0 2 -22 80 -50 173
-52 179 -63 197 -115 192 -32 -3 -59 -35 -131 -153 l-41 -68 -47 79 c-78 128
-92 144 -131 144 -25 0 -39 -6 -49 -22z"/>
<path d="M1516 878 c-30 -29 -246 -321 -246 -333 0 -3 31 -5 69 -5 l69 0 79
110 c43 60 81 110 84 110 3 0 25 -27 48 -60 l42 -59 -73 -3 -72 -3 -34 -45
-35 -45 208 -3 c114 -1 210 0 212 2 8 7 -218 326 -246 347 -35 28 -67 23 -105
-13z"/>
<path d="M1995 901 c-79 -20 -128 -64 -146 -133 -23 -86 17 -163 105 -204 49
-23 61 -24 264 -24 l213 1 -33 26 c-18 15 -35 28 -37 30 -3 2 6 25 19 52 50
108 -5 217 -129 251 -41 11 -210 12 -256 1z m244 -106 c31 -15 49 -55 43 -92
-3 -22 -8 -23 -88 -23 -80 0 -104 -9 -66 -25 28 -13 -25 -22 -82 -14 -58 7
-86 34 -86 84 0 25 8 40 31 59 28 24 38 26 125 26 64 0 104 -5 123 -15z"/>
<path d="M1485 451 c-27 -53 -127 -151 -195 -191 -95 -57 -210 -84 -320 -77
-152 11 -265 62 -373 170 -37 37 -62 57 -56 45 7 -13 44 -55 84 -94 117 -116
276 -183 435 -183 161 -1 326 67 439 179 61 60 121 144 121 169 0 7 -24 11
-60 11 -56 0 -60 -2 -75 -29z"/>
</g>
</svg>
